{
  "accessors": [
    {
      "bufferView": 2,
      "componentType": 5126,
      "count": 1471,
      "max": [
        1.8873376846313477,
        3.973498821258545,
        1.8861875534057617
      ],
      "min": [
        -1.8827394247055054,
        0.025247931480407715,
        -1.8861865997314453
      ],
      "type": "VEC3"
    },
    {
      "bufferView": 2,
      "byteOffset": 17652,
      "componentType": 5126,
      "count": 1471,
      "max": [
        1.0,
        1.0,
        0.9993908405303955
      ],
      "min": [
        -0.9975641369819641,
        -1.0,
        -0.9993909001350403
      ],
      "type": "VEC3"
    },
    {
      "bufferView": 3,
      "componentType": 5126,
      "count": 1471,
      "max": [
        0.9929991960525513,
        0.9999971389770508,
        0.9939994812011719,
        1.0
      ],
      "min": [
        -0.9937885403633118,
        -0.10889378935098648,
        -0.9934471249580383,
        1.0
      ],
      "type": "VEC4"
    },
    {
      "bufferView": 1,
      "componentType": 5126,
      "count": 1471,
      "max": [
        0.9615741968154907,
        0.9911699891090393
      ],
      "min": [
        0.008566349744796753,
        0.008830010890960693
      ],
      "type": "VEC2"
    },
    {
      "bufferView": 0,
      "componentType": 5125,
      "count": 7554,
      "type": "SCALAR"
    },
    {
      "bufferView": 2,
      "byteOffset": 35304,
      "componentType": 5126,
      "count": 456,
      "max": [
        1.7032279968261719,
        5.763883590698242,
        0.10673177242279053
      ],
      "min": [
        -0.07423478364944458,
        3.9414005279541016,
        -0.4439258575439453
      ],
      "type": "VEC3"
    },
    {
      "bufferView": 2,
      "byteOffset": 40776,
      "componentType": 5126,
      "count": 456,
      "max": [
        1.0,
        0.9925795197486877,
        1.0
      ],
      "min": [
        -1.0,
        -0.991733729839325,
        -1.0
      ],
      "type": "VEC3"
    },
    {
      "bufferView": 3,
      "byteOffset": 23536,
      "componentType": 5126,
      "count": 456,
      "max": [
        0.9998345375061035,
        0.9911180734634399,
        0.9999765753746033,
        1.0
      ],
      "min": [
        -0.9999680519104004,
        -0.9910678863525391,
        -0.9999995827674866,
        1.0
      ],
      "type": "VEC4"
    },
    {
      "bufferView": 1,
      "byteOffset": 11768,
      "componentType": 5126,
      "count": 456,
      "max": [
        0.8353258967399597,
        0.8585847616195679
      ],
      "min": [
        0.6898012757301331,
        0.005175010301172733
      ],
      "type": "VEC2"
    },
    {
      "bufferView": 0,
      "byteOffset": 30216,
      "componentType": 5125,
      "count": 2460,
      "type": "SCALAR"
    }
  ],
  "asset": {
    "extras": {
      "author": "Zambur (https://sketchfab.com/Zambur)",
      "license": "CC-BY-4.0 (http://creativecommons.org/licenses/by/4.0/)",
      "source": "https://sketchfab.com/3d-models/bomb-f9a355d8d3ad41419d983aa6ecaa0f5c",
      "title": "Bomb"
    },
    "generator": "Sketchfab-11.8.0",
    "version": "2.0"
  },
  "bufferViews": [
    {
      "buffer": 0,
      "byteLength": 40056,
      "name": "floatBufferViews",
      "target": 34963
    },
    {
      "buffer": 0,
      "byteLength": 15416,
      "byteOffset": 40056,
      "byteStride": 8,
      "name": "floatBufferViews",
      "target": 34962
    },
    {
      "buffer": 0,
      "byteLength": 46248,
      "byteOffset": 55472,
      "byteStride": 12,
      "name": "floatBufferViews",
      "target": 34962
    },
    {
      "buffer": 0,
      "byteLength": 30832,
      "byteOffset": 101720,
      "byteStride": 16,
      "name": "floatBufferViews",
      "target": 34962
    }
  ],
  "buffers": [
    {
      "byteLength": 132552,
      "uri": "scene.bin"
    }
  ],
  "images": [
    {
      "uri": "textures/lambert1_baseColor.png"
    },
    {
      "uri": "textures/lambert1_metallicRoughness.png"
    },
    {
      "uri": "textures/lambert1_emissive.png"
    },
    {
      "uri": "textures/lambert1_normal.png"
    }
  ],
  "materials": [
    {
      "doubleSided": true,
      "emissiveFactor": [
        1.0,
        1.0,
        1.0
      ],
      "emissiveTexture": {
        "index": 2
      },
      "name": "lambert1",
      "normalTexture": {
        "index": 3
      },
      "pbrMetallicRoughness": {
        "baseColorTexture": {
          "index": 0
        },
        "metallicRoughnessTexture": {
          "index": 1
        }
      }
    }
  ],
  "meshes": [
    {
      "name": "pSphere1_lambert1_0",
      "primitives": [
        {
          "attributes": {
            "NORMAL": 1,
            "POSITION": 0,
            "TANGENT": 2,
            "TEXCOORD_0": 3
          },
          "indices": 4,
          "material": 0,
          "mode": 4
        }
      ]
    },
    {
      "name": "pCylinder2_lambert1_0",
      "primitives": [
        {
          "attributes": {
            "NORMAL": 6,
            "POSITION": 5,
            "TANGENT": 7,
            "TEXCOORD_0": 8
          },
          "indices": 9,
          "material": 0,
          "mode": 4
        }
      ]
    }
  ],
  "nodes": [
    {
      "children": [
        1
      ],
      "matrix": [
        1.0,
        0.0,
        0.0,
        0.0,
        0.0,
        2.220446049250313e-16,
        -1.0,
        0.0,
        0.0,
        1.0,
        2.220446049250313e-16,
        0.0,
        0.0,
        0.0,
        0.0,
        1.0
      ],
      "name": "Sketchfab_model"
    },
    {
      "children": [
        2
      ],
      "matrix": [
        1.0,
        0.0,
        0.0,
        0.0,
        0.0,
        0.0,
        1.0,
        0.0,
        0.0,
        -1.0,
        0.0,
        0.0,
        0.0,
        0.0,
        0.0,
        1.0
      ],
      "name": "4c62a63c2ca544bb8c0bbd4bf8017209.fbx"
    },
    {
      "children": [
        3
      ],
      "name": "RootNode"
    },
    {
      "children": [
        4,
        6
      ],
      "name": "group1"
    },
    {
      "children": [
        5
      ],
      "name": "pSphere1"
    },
    {
      "mesh": 0,
      "name": "pSphere1_lambert1_0"
    },
    {
      "children": [
        7
      ],
      "name": "pCylinder2"
    },
    {
      "mesh": 1,
      "name": "pCylinder2_lambert1_0"
    }
  ],
  "samplers": [
    {
      "magFilter": 9729,
      "minFilter": 9987,
      "wrapS": 10497,
      "wrapT": 10497
    }
  ],
  "scene": 0,
  "scenes": [
    {
      "name": "Sketchfab_Scene",
      "nodes": [
        0
      ]
    }
  ],
  "textures": [
    {
      "sampler": 0,
      "source": 0
    },
    {
      "sampler": 0,
      "source": 1
    },
    {
      "sampler": 0,
      "source": 2
    },
    {
      "sampler": 0,
      "source": 3
    }
  ]
}
